%TF.GenerationSoftware,KiCad,Pcbnew,9.0.1*%
%TF.CreationDate,2025-04-18T15:35:22+02:00*%
%TF.ProjectId,BLDC_DRIVER,424c4443-5f44-4524-9956-45522e6b6963,rev?*%
%TF.SameCoordinates,Original*%
%TF.FileFunction,Plated,1,4,PTH,Mixed*%
%TF.FilePolarity,Positive*%
%FSLAX46Y46*%
G04 Gerber Fmt 4.6, Leading zero omitted, Abs format (unit mm)*
G04 Created by KiCad (PCBNEW 9.0.1) date 2025-04-18 15:35:22*
%MOMM*%
%LPD*%
G01*
G04 APERTURE LIST*
%TA.AperFunction,ViaDrill*%
%ADD10C,0.300000*%
%TD*%
%TA.AperFunction,ComponentDrill*%
%ADD11C,0.300000*%
%TD*%
%TA.AperFunction,ComponentDrill*%
%ADD12C,1.000000*%
%TD*%
%TA.AperFunction,ComponentDrill*%
%ADD13C,2.000000*%
%TD*%
G04 aperture for slot hole*
%TA.AperFunction,ComponentDrill*%
%ADD14C,2.000000*%
%TD*%
G04 APERTURE END LIST*
D10*
X123147752Y-69776910D03*
X123190481Y-108245826D03*
X123193202Y-63709409D03*
X123220781Y-105306761D03*
X123235930Y-97277359D03*
X123266230Y-99837678D03*
X123311680Y-94732190D03*
X123341979Y-101822304D03*
X123352275Y-66618174D03*
X123420449Y-80366632D03*
X123443174Y-60323425D03*
X123448028Y-110836444D03*
X123493477Y-91702226D03*
X123554077Y-89384305D03*
X123650000Y-75475000D03*
X123762653Y-47175744D03*
X123800000Y-50100000D03*
X123808102Y-53114472D03*
X123850000Y-57700000D03*
X124600000Y-15200000D03*
X124705463Y-88051121D03*
X125400000Y-17600000D03*
X125625000Y-82925000D03*
X125975000Y-77000000D03*
X126000000Y-73400000D03*
X126200000Y-68000000D03*
X126200000Y-70800000D03*
X126262373Y-60113687D03*
X126600000Y-15200000D03*
X126641118Y-46645500D03*
X126641118Y-50599602D03*
X127120000Y-74580000D03*
X127325000Y-103175000D03*
X127341531Y-88202619D03*
X127383459Y-55992937D03*
X127425000Y-100350000D03*
X127584577Y-97612133D03*
X127600000Y-65200000D03*
X127650000Y-71870000D03*
X127650000Y-106750000D03*
X127850000Y-105550000D03*
X128000000Y-17600000D03*
X128475000Y-110375000D03*
X128600000Y-24000000D03*
X129247393Y-23075026D03*
X129400000Y-15200000D03*
X129400000Y-59800000D03*
X129400000Y-64200000D03*
X129580182Y-58462357D03*
X129850000Y-80250000D03*
X130000000Y-24000000D03*
X130413422Y-55311195D03*
X130676225Y-23096142D03*
X130800000Y-17600000D03*
X130975000Y-69350000D03*
X131125000Y-64425000D03*
X131150000Y-91000000D03*
X131155763Y-61295373D03*
X131375000Y-106525000D03*
X131400000Y-24000000D03*
X131525000Y-99350000D03*
X132105056Y-23124296D03*
X132200000Y-15200000D03*
X132325000Y-95850000D03*
X132450000Y-70900000D03*
X132716194Y-57720016D03*
X132750000Y-110675000D03*
X132800000Y-24000000D03*
X132800000Y-59800000D03*
X132800000Y-64175000D03*
X132856064Y-85430203D03*
X133386307Y-83491026D03*
X133400000Y-17600000D03*
X133507506Y-87596626D03*
X133562042Y-23243952D03*
X133575000Y-68750000D03*
X133594884Y-54553704D03*
X134200000Y-24000000D03*
X134400000Y-39250000D03*
X134550000Y-71850000D03*
X134600000Y-63700000D03*
X134640221Y-60371234D03*
X134650000Y-79625000D03*
X134962720Y-23258029D03*
X135000000Y-15200000D03*
X135025000Y-69225000D03*
X135600000Y-24000000D03*
X135749679Y-87672375D03*
X135875000Y-110750000D03*
X135983313Y-22680865D03*
X136352150Y-57492769D03*
X136400000Y-73400000D03*
X136525000Y-64150000D03*
X136575000Y-95950000D03*
X136600000Y-17600000D03*
X136600000Y-59600000D03*
X137000000Y-23400000D03*
X137025000Y-68675000D03*
X137300000Y-71400000D03*
X137400000Y-33600000D03*
X137500000Y-39250000D03*
X137625000Y-91000000D03*
X137778151Y-22526017D03*
X137903913Y-34556203D03*
X138000000Y-15200000D03*
X138375000Y-63775000D03*
X138400000Y-33600000D03*
X138550000Y-68700000D03*
X138564023Y-60765129D03*
X138575000Y-74325000D03*
X138600000Y-23400000D03*
X138800000Y-34600000D03*
X138950000Y-110800000D03*
X139025000Y-99675000D03*
X139173537Y-89020709D03*
X139270330Y-22533055D03*
X139400000Y-17600000D03*
X139400000Y-33600000D03*
X139400000Y-62450000D03*
X139400000Y-64200000D03*
X139400000Y-65650000D03*
X139400000Y-107100000D03*
X139609361Y-58159361D03*
X139775000Y-80100000D03*
X139800000Y-34600000D03*
X140000000Y-23400000D03*
X140100000Y-98100000D03*
X140275000Y-95975000D03*
X140400000Y-33600000D03*
X140600000Y-73200000D03*
X140734354Y-22575287D03*
X140800000Y-15200000D03*
X140800000Y-34600000D03*
X140800000Y-38600000D03*
X140800000Y-41000000D03*
X140800000Y-42400000D03*
X140800000Y-43600000D03*
X140800000Y-44800000D03*
X140930916Y-89066158D03*
X141125000Y-68425000D03*
X141300000Y-71125000D03*
X141400000Y-23400000D03*
X141400000Y-33600000D03*
X142092800Y-22589364D03*
X142199979Y-59977339D03*
X142400000Y-17600000D03*
X142400000Y-33600000D03*
X142400000Y-68400000D03*
X142400000Y-73400000D03*
X142800000Y-23400000D03*
X143400000Y-33600000D03*
X143594843Y-88428337D03*
X143655442Y-83004703D03*
X143791791Y-85307475D03*
X143991179Y-92232470D03*
X144200000Y-15200000D03*
X144337184Y-79186949D03*
X144396703Y-65370673D03*
X144400000Y-28400000D03*
X144400000Y-29400000D03*
X144400000Y-30400000D03*
X144400000Y-31400000D03*
X144400000Y-32400000D03*
X144400000Y-33600000D03*
X144425000Y-75675000D03*
X144450000Y-99700000D03*
X144450000Y-102550000D03*
X144472452Y-62552807D03*
X144500000Y-101200000D03*
X144600000Y-110825000D03*
X144725000Y-44450000D03*
X144900000Y-94310000D03*
X144900000Y-95160000D03*
X144911796Y-57901814D03*
X145250000Y-71075000D03*
X145290674Y-48748285D03*
X145575000Y-51875000D03*
X145600000Y-28800000D03*
X145600000Y-29800000D03*
X145600000Y-30800000D03*
X145600000Y-31800000D03*
X145600000Y-33000000D03*
X145800000Y-17600000D03*
X145975000Y-54125000D03*
X145975000Y-106400000D03*
X146000000Y-98025000D03*
X146125000Y-93400000D03*
X146170312Y-82171463D03*
X146300000Y-73100000D03*
X146500000Y-110950000D03*
X146594507Y-85534722D03*
X146700000Y-65300000D03*
X147100000Y-96000000D03*
X147575000Y-106400000D03*
X147579245Y-79292998D03*
X147600000Y-15200000D03*
X147767669Y-47225728D03*
X147790261Y-60007638D03*
X147836792Y-67097396D03*
X147950000Y-64000000D03*
X148222556Y-38840310D03*
X148276136Y-83943991D03*
X148608876Y-41226406D03*
X148825000Y-107375000D03*
X148900000Y-111000000D03*
X149025000Y-92175000D03*
X149200000Y-17400000D03*
X149300000Y-74000000D03*
X149550000Y-76862500D03*
X149631097Y-48816459D03*
X149669919Y-82095714D03*
X149700000Y-101950000D03*
X149700000Y-105200000D03*
X149750000Y-62050000D03*
X149775000Y-98025000D03*
X149866867Y-69354718D03*
X150253801Y-100500224D03*
X150366811Y-79520245D03*
X150600000Y-15200000D03*
X150608127Y-57962413D03*
X150760706Y-67157995D03*
X151078852Y-70960599D03*
X151150000Y-109325000D03*
X151275000Y-92250000D03*
X151403625Y-54633988D03*
X151404017Y-38453989D03*
X151600000Y-106825000D03*
X151653989Y-41226406D03*
X151900000Y-102050000D03*
X151994468Y-51202555D03*
X152325000Y-62050000D03*
X152400000Y-44300000D03*
X152920197Y-95877387D03*
X153018029Y-67385242D03*
X153275576Y-69172920D03*
X153396774Y-71399943D03*
X153700000Y-92225000D03*
X153750042Y-58858297D03*
X154000000Y-77275000D03*
X154017917Y-79505095D03*
X154335114Y-53270505D03*
X154494580Y-38590338D03*
X154550000Y-97975000D03*
X154653128Y-62113463D03*
X154714808Y-86867906D03*
X154790001Y-40930984D03*
X155075000Y-110950000D03*
X155198654Y-46884857D03*
X155229902Y-81762418D03*
X155305651Y-79459646D03*
X155525000Y-75925000D03*
X155623797Y-68430579D03*
X155800000Y-63500000D03*
X156200000Y-96075000D03*
X156232230Y-92171871D03*
X156275000Y-103050000D03*
X156375000Y-110975000D03*
X156380732Y-43839749D03*
X156550000Y-106600000D03*
X156638835Y-71142397D03*
X156675000Y-59925000D03*
X156881232Y-85474123D03*
X156984723Y-29052189D03*
X156984723Y-30052189D03*
X156984723Y-31052189D03*
X156984723Y-32052189D03*
X156984723Y-33052189D03*
X157926013Y-40999159D03*
X157948346Y-50066319D03*
X158200000Y-27600000D03*
X158200000Y-28600000D03*
X158200000Y-29600000D03*
X158200000Y-30600000D03*
X158200000Y-31600000D03*
X158200000Y-32600000D03*
X158200000Y-33600000D03*
X158215000Y-24215000D03*
X158275000Y-98275000D03*
X158500000Y-72200000D03*
X158728429Y-59947039D03*
X158800000Y-23400000D03*
X158904346Y-102969644D03*
X159039525Y-43839749D03*
X159302880Y-73102880D03*
X159400000Y-33600000D03*
X159600000Y-24200000D03*
X159622268Y-58159361D03*
X159875000Y-65225000D03*
X159925000Y-90525000D03*
X159925789Y-40681012D03*
X160289941Y-81944216D03*
X160300000Y-66500000D03*
X160300000Y-73025000D03*
X160334309Y-59931889D03*
X160335453Y-23397080D03*
X160400000Y-33600000D03*
X160777175Y-88823761D03*
X160825000Y-96500000D03*
X160893260Y-68712500D03*
X160900000Y-69650000D03*
X161000000Y-24200000D03*
X161000000Y-61250000D03*
X161100000Y-66500000D03*
X161100000Y-98800000D03*
X161100000Y-110975000D03*
X161176818Y-103257490D03*
X161400000Y-33600000D03*
X161450000Y-82050000D03*
X161592825Y-76990226D03*
X161600000Y-38200000D03*
X161600000Y-39400000D03*
X161600000Y-40600000D03*
X161600000Y-42200000D03*
X161600000Y-43400000D03*
X161600000Y-44600000D03*
X161600000Y-62015685D03*
X161607975Y-71036348D03*
X161700938Y-23361887D03*
X161774623Y-75490394D03*
X161825000Y-93875000D03*
X161900000Y-66500000D03*
X162050000Y-81450000D03*
X162110383Y-62710383D03*
X162110759Y-106965982D03*
X162400000Y-33600000D03*
X162415000Y-24215000D03*
X162470566Y-54747612D03*
X162600000Y-36000000D03*
X162625000Y-111050000D03*
X162675000Y-80825000D03*
X163025000Y-95200000D03*
X163100000Y-85000000D03*
X163129769Y-23368925D03*
X163153256Y-76944776D03*
X163200000Y-85950000D03*
X163250000Y-87775000D03*
X163300000Y-73200000D03*
X163400000Y-33600000D03*
X163800000Y-24200000D03*
X163800000Y-59800000D03*
X163800000Y-67050000D03*
X164000000Y-58800000D03*
X164000000Y-92000000D03*
X164389675Y-23354848D03*
X164750000Y-85950000D03*
X164873374Y-103348389D03*
X164875000Y-76175000D03*
X165000000Y-34600000D03*
X165000000Y-39400000D03*
X165197533Y-47657498D03*
X165200000Y-24200000D03*
X165400000Y-62800000D03*
X165400000Y-64200000D03*
X165400000Y-65600000D03*
X165447505Y-55452079D03*
X165780624Y-89450000D03*
X165910008Y-23368925D03*
X166025000Y-91350000D03*
X166100000Y-95075000D03*
X166241663Y-73050040D03*
X166300000Y-78300000D03*
X166300000Y-79200000D03*
X166300000Y-80000000D03*
X166398766Y-71100000D03*
X166400000Y-96900000D03*
X166615000Y-24215000D03*
X166675000Y-77450000D03*
X166750000Y-89350000D03*
X166800000Y-62800000D03*
X166800000Y-64200000D03*
X166800000Y-65600000D03*
X167150000Y-98875000D03*
X167289569Y-23361887D03*
X167357944Y-101575861D03*
X167388243Y-103408988D03*
X167400000Y-111000000D03*
X167515455Y-51520701D03*
X167629078Y-47839296D03*
X167675000Y-76850000D03*
X167900000Y-89300000D03*
X167998772Y-71100000D03*
X168000000Y-24200000D03*
X168000000Y-39400000D03*
X168089941Y-80039156D03*
X168178261Y-107034157D03*
X168200000Y-62800000D03*
X168200000Y-64200000D03*
X168200000Y-65600000D03*
X168666266Y-23375964D03*
X168800000Y-89100000D03*
X168925000Y-110975000D03*
X169000000Y-95150000D03*
X169400000Y-24200000D03*
X169453424Y-73746932D03*
X169475000Y-93025000D03*
X169525000Y-88508360D03*
X169574293Y-58375707D03*
X169598777Y-71100007D03*
X169600000Y-59800000D03*
X169700000Y-85500000D03*
X170123252Y-23368925D03*
X170525000Y-85100000D03*
X170700000Y-77200000D03*
X170815000Y-24215000D03*
X170857551Y-103469588D03*
X171196860Y-55270281D03*
X171200000Y-61499997D03*
X171241102Y-73686333D03*
X171400000Y-95700000D03*
X171776396Y-77211190D03*
X172200000Y-62200000D03*
X172540000Y-95410000D03*
X172554331Y-97667208D03*
X172644985Y-84957796D03*
X172655085Y-82352028D03*
X172660379Y-99606385D03*
X172700000Y-73500000D03*
X172857327Y-101666760D03*
X172963376Y-103469588D03*
X173350000Y-107250000D03*
X173400000Y-88550000D03*
X173700000Y-78500000D03*
X173729440Y-73651321D03*
X173800000Y-111100000D03*
X174100000Y-66325000D03*
X174162227Y-79162227D03*
X174175000Y-85450000D03*
X174400000Y-74100000D03*
X174442764Y-77605085D03*
X174825000Y-81012174D03*
X175264586Y-58883512D03*
X175300000Y-75600000D03*
X175357047Y-111150545D03*
X175610000Y-92730000D03*
X175673631Y-87130344D03*
X175764530Y-50952583D03*
X175836547Y-74322625D03*
X176099388Y-95303837D03*
X176100000Y-76400000D03*
X176151798Y-63294792D03*
X176417534Y-103257490D03*
X176515394Y-65658163D03*
X176582620Y-56406517D03*
X176605344Y-86221355D03*
X176826335Y-75231614D03*
X177196187Y-48839184D03*
X177720418Y-93713106D03*
X177900000Y-79000000D03*
X177950000Y-81925000D03*
X178000000Y-85200000D03*
X178200000Y-100700000D03*
X178363819Y-60999855D03*
X178750000Y-79000000D03*
X178750000Y-107300000D03*
X178968716Y-54224943D03*
X178997808Y-84826498D03*
X179225000Y-103575000D03*
X179550003Y-79000000D03*
X179700499Y-80244700D03*
X179741356Y-46771234D03*
X179877705Y-98424532D03*
X179947441Y-110983897D03*
X180150000Y-101475000D03*
X180150401Y-90834474D03*
X180423098Y-95061273D03*
X180718519Y-66200873D03*
X181309362Y-59247108D03*
X181575000Y-108175000D03*
X181625000Y-51850000D03*
X181775000Y-88550000D03*
X181775000Y-92575000D03*
X181800000Y-111100000D03*
X182225000Y-101300000D03*
X182400149Y-67837053D03*
X182600000Y-15800000D03*
X182809194Y-96856526D03*
X182922818Y-56542865D03*
X183127340Y-99288072D03*
X184000000Y-17600000D03*
X184081779Y-69336885D03*
X184127228Y-48680111D03*
X184127228Y-51566151D03*
X184240852Y-86471327D03*
X184377200Y-59474355D03*
X184490824Y-66291772D03*
X184675000Y-101600000D03*
X185013492Y-70973065D03*
X185125000Y-97250000D03*
X185371075Y-92773817D03*
X185450000Y-103750000D03*
X185480000Y-75500000D03*
X185600000Y-15800000D03*
X185699023Y-79696313D03*
X186175000Y-76850000D03*
X186275000Y-105325000D03*
X186558774Y-56792837D03*
X186581498Y-66314497D03*
X186800000Y-23800000D03*
X186854195Y-88493828D03*
X186880709Y-111079158D03*
X186990543Y-82789922D03*
X187058718Y-85221468D03*
X187388842Y-22837435D03*
X187400000Y-17600000D03*
X187445038Y-60928737D03*
X187876808Y-63269384D03*
X188200000Y-23800000D03*
X188700000Y-76925000D03*
X188717622Y-69177812D03*
X188717622Y-72472897D03*
X188876696Y-58769888D03*
X188900000Y-75600000D03*
X188909175Y-22847993D03*
X188948659Y-79605414D03*
X189043780Y-15794121D03*
X189217566Y-66405396D03*
X189600000Y-23800000D03*
X190194730Y-56792837D03*
X190292256Y-22869109D03*
X190800000Y-17600000D03*
X191000000Y-23800000D03*
X191285516Y-60837838D03*
X191400000Y-39600000D03*
X191444589Y-63269384D03*
X191671837Y-81221916D03*
X191707010Y-22890224D03*
X191750000Y-104125000D03*
X191766525Y-110806461D03*
X192285404Y-66450845D03*
X192324841Y-89062112D03*
X192400000Y-15800000D03*
X192400000Y-23800000D03*
X192500000Y-91350000D03*
X192500000Y-97025000D03*
X192525000Y-93375000D03*
X192525000Y-95225000D03*
X192671725Y-73290987D03*
X193058045Y-69086913D03*
X193079533Y-22879666D03*
X193334530Y-76583026D03*
X193421640Y-71404835D03*
X193500000Y-103250000D03*
X193800000Y-23800000D03*
X193944309Y-56679214D03*
X193967034Y-51657050D03*
X194000000Y-62400000D03*
X194103382Y-54543090D03*
X194200000Y-17600000D03*
X194300000Y-96250000D03*
X194300000Y-101575000D03*
X194473172Y-22879666D03*
X194475000Y-94450000D03*
X194600000Y-39600000D03*
X195100000Y-73400000D03*
X195197958Y-106306965D03*
X195200000Y-23800000D03*
X195200000Y-33400000D03*
X195325000Y-92700000D03*
X195720815Y-34417635D03*
X195792906Y-22879666D03*
X196194057Y-66291772D03*
X196197846Y-110806461D03*
X196200000Y-15800000D03*
X196200000Y-33400000D03*
X196600000Y-23800000D03*
X196627389Y-98939793D03*
X196766044Y-34370124D03*
X197200000Y-33400000D03*
X197200000Y-92125000D03*
X197218468Y-22949725D03*
X197466641Y-55383904D03*
X197600000Y-17600000D03*
X197763763Y-34385961D03*
X197800000Y-38200000D03*
X197800000Y-39400000D03*
X197800000Y-40600000D03*
X197800000Y-42000000D03*
X197800000Y-43200000D03*
X197800000Y-44400000D03*
X198000000Y-23800000D03*
X198012035Y-75631634D03*
X198106723Y-106306965D03*
X198200000Y-33400000D03*
X198493043Y-103375476D03*
X198900000Y-69800000D03*
X199200000Y-15800000D03*
X199200000Y-33400000D03*
X199466417Y-66473570D03*
X199536153Y-80244919D03*
X199625490Y-55565702D03*
X199739114Y-73972729D03*
X199739114Y-78517674D03*
X200011810Y-62587642D03*
X200034535Y-57860899D03*
X200050000Y-60175000D03*
X200096696Y-89213611D03*
X200100000Y-91825000D03*
X200150000Y-96550000D03*
X200200000Y-33400000D03*
X200220122Y-110829186D03*
X200225000Y-93925000D03*
X200313488Y-29634920D03*
X200313488Y-30600965D03*
X200329325Y-31630358D03*
X200360999Y-28621365D03*
X200534872Y-40476490D03*
X200839037Y-99106441D03*
X200853018Y-43930648D03*
X201000000Y-17600000D03*
X201200000Y-28200000D03*
X201200000Y-29200000D03*
X201200000Y-30200000D03*
X201200000Y-31200000D03*
X201200000Y-32200000D03*
X201200000Y-33400000D03*
X201535929Y-80184320D03*
X202034311Y-76086128D03*
X202100000Y-93750000D03*
X202378971Y-102966431D03*
X202378971Y-110851910D03*
X202401696Y-106397864D03*
X202466081Y-52656937D03*
X202488805Y-55588427D03*
X202534255Y-61292333D03*
X202556980Y-66678092D03*
X202647879Y-46998481D03*
X202647879Y-63405732D03*
X202738777Y-58815338D03*
X202738777Y-73450060D03*
X202761502Y-49952695D03*
X202800000Y-15800000D03*
X202920575Y-69336885D03*
X202929712Y-99379137D03*
X203170940Y-40590114D03*
X203490255Y-80199470D03*
X203511810Y-43589777D03*
X203625000Y-89700000D03*
X203697005Y-87059124D03*
X204400000Y-17600000D03*
X205800000Y-15800000D03*
X207200000Y-17600000D03*
X207400000Y-28200000D03*
X207400000Y-30400000D03*
X207400000Y-33000000D03*
X208400000Y-15800000D03*
X208400000Y-29400000D03*
X208400000Y-31600000D03*
X208400000Y-34200000D03*
X208600000Y-37800000D03*
X208600000Y-45600000D03*
X208600000Y-48400000D03*
X208600000Y-51600000D03*
X208800000Y-58600000D03*
X208800000Y-60600000D03*
X208800000Y-63000000D03*
X208800000Y-65600000D03*
X209200000Y-73400000D03*
X209200000Y-75800000D03*
X209200000Y-77800000D03*
X209400000Y-28200000D03*
X209400000Y-30400000D03*
X209400000Y-33000000D03*
X209800000Y-17400000D03*
X210400000Y-29400000D03*
X210400000Y-31600000D03*
X210400000Y-34200000D03*
X211200000Y-15800000D03*
X211200000Y-58600000D03*
X211200000Y-60600000D03*
X211200000Y-63000000D03*
X211200000Y-65600000D03*
X211200000Y-73200000D03*
X211400000Y-28200000D03*
X211400000Y-30400000D03*
X211400000Y-33000000D03*
X211400000Y-37800000D03*
X211400000Y-45600000D03*
X211400000Y-48400000D03*
X211400000Y-51600000D03*
X211400000Y-75800000D03*
X211400000Y-77800000D03*
X212400000Y-29400000D03*
X212400000Y-31600000D03*
X212400000Y-34200000D03*
X217279564Y-97164324D03*
X217375000Y-102375000D03*
X217586348Y-77700597D03*
X217620435Y-91744477D03*
X217654522Y-72655709D03*
X217654522Y-84279405D03*
X217688609Y-60691141D03*
X217722696Y-66076901D03*
X217765366Y-15874266D03*
X217800126Y-28313567D03*
X217824957Y-37682358D03*
X217824957Y-51453541D03*
X217859045Y-33046514D03*
X217995393Y-47397177D03*
X218050000Y-24925000D03*
X218151686Y-20987329D03*
D11*
%TO.C,U2*%
X134100000Y-102190000D03*
X134100000Y-103590000D03*
X134800000Y-101490000D03*
X134800000Y-102890000D03*
X134800000Y-104290000D03*
X135500000Y-102190000D03*
X135500000Y-103590000D03*
X136200000Y-101490000D03*
X136200000Y-102890000D03*
X136200000Y-104290000D03*
X136900000Y-102190000D03*
X136900000Y-103590000D03*
D12*
%TO.C,J2*%
X124910000Y-85600000D03*
X127450000Y-85600000D03*
X129990000Y-85600000D03*
%TO.C,J3*%
X135360000Y-85550000D03*
X137900000Y-85550000D03*
X140440000Y-85550000D03*
%TO.C,J4*%
X145440000Y-89100000D03*
X147980000Y-89100000D03*
X150520000Y-89100000D03*
X153060000Y-89100000D03*
X155600000Y-89100000D03*
X158140000Y-89100000D03*
D13*
%TO.C,J104*%
X157860000Y-16950000D03*
X165480000Y-16950000D03*
X173100000Y-16950000D03*
%TO.C,J1*%
X209340000Y-106500000D03*
D14*
%TO.C,F1*%
X209400000Y-86500000D02*
X209400000Y-85000000D01*
X209400000Y-94500000D02*
X209400000Y-93000000D01*
D13*
%TO.C,J1*%
X216960000Y-106500000D03*
M02*
