%TF.GenerationSoftware,KiCad,Pcbnew,9.0.1*%
%TF.CreationDate,2025-04-18T15:35:09+02:00*%
%TF.ProjectId,BLDC_DRIVER,424c4443-5f44-4524-9956-45522e6b6963,rev?*%
%TF.SameCoordinates,Original*%
%TF.FileFunction,Soldermask,Top*%
%TF.FilePolarity,Negative*%
%FSLAX46Y46*%
G04 Gerber Fmt 4.6, Leading zero omitted, Abs format (unit mm)*
G04 Created by KiCad (PCBNEW 9.0.1) date 2025-04-18 15:35:09*
%MOMM*%
%LPD*%
G01*
G04 APERTURE LIST*
G04 Aperture macros list*
%AMRoundRect*
0 Rectangle with rounded corners*
0 $1 Rounding radius*
0 $2 $3 $4 $5 $6 $7 $8 $9 X,Y pos of 4 corners*
0 Add a 4 corners polygon primitive as box body*
4,1,4,$2,$3,$4,$5,$6,$7,$8,$9,$2,$3,0*
0 Add four circle primitives for the rounded corners*
1,1,$1+$1,$2,$3*
1,1,$1+$1,$4,$5*
1,1,$1+$1,$6,$7*
1,1,$1+$1,$8,$9*
0 Add four rect primitives between the rounded corners*
20,1,$1+$1,$2,$3,$4,$5,0*
20,1,$1+$1,$4,$5,$6,$7,0*
20,1,$1+$1,$6,$7,$8,$9,0*
20,1,$1+$1,$8,$9,$2,$3,0*%
%AMFreePoly0*
4,1,6,1.000000,0.000000,0.500000,-0.750000,-0.500000,-0.750000,-0.500000,0.750000,0.500000,0.750000,1.000000,0.000000,1.000000,0.000000,$1*%
%AMFreePoly1*
4,1,6,0.500000,-0.750000,-0.650000,-0.750000,-0.150000,0.000000,-0.650000,0.750000,0.500000,0.750000,0.500000,-0.750000,0.500000,-0.750000,$1*%
G04 Aperture macros list end*
%ADD10RoundRect,0.250000X0.275000X0.500000X-0.275000X0.500000X-0.275000X-0.500000X0.275000X-0.500000X0*%
%ADD11RoundRect,0.250000X0.950000X0.500000X-0.950000X0.500000X-0.950000X-0.500000X0.950000X-0.500000X0*%
%ADD12C,1.500000*%
%ADD13C,4.204000*%
%ADD14RoundRect,0.250000X0.475000X-0.250000X0.475000X0.250000X-0.475000X0.250000X-0.475000X-0.250000X0*%
%ADD15RoundRect,0.250000X0.337500X0.475000X-0.337500X0.475000X-0.337500X-0.475000X0.337500X-0.475000X0*%
%ADD16RoundRect,0.237500X0.300000X0.237500X-0.300000X0.237500X-0.300000X-0.237500X0.300000X-0.237500X0*%
%ADD17RoundRect,0.250000X-0.650000X0.325000X-0.650000X-0.325000X0.650000X-0.325000X0.650000X0.325000X0*%
%ADD18RoundRect,0.225000X0.250000X-0.225000X0.250000X0.225000X-0.250000X0.225000X-0.250000X-0.225000X0*%
%ADD19RoundRect,0.237500X-0.250000X-0.237500X0.250000X-0.237500X0.250000X0.237500X-0.250000X0.237500X0*%
%ADD20RoundRect,0.250000X1.075000X-0.312500X1.075000X0.312500X-1.075000X0.312500X-1.075000X-0.312500X0*%
%ADD21RoundRect,0.250000X0.450000X-0.262500X0.450000X0.262500X-0.450000X0.262500X-0.450000X-0.262500X0*%
%ADD22RoundRect,0.200000X-0.275000X0.200000X-0.275000X-0.200000X0.275000X-0.200000X0.275000X0.200000X0*%
%ADD23RoundRect,0.237500X0.250000X0.237500X-0.250000X0.237500X-0.250000X-0.237500X0.250000X-0.237500X0*%
%ADD24RoundRect,0.200000X-0.200000X-0.275000X0.200000X-0.275000X0.200000X0.275000X-0.200000X0.275000X0*%
%ADD25RoundRect,0.237500X0.237500X-0.250000X0.237500X0.250000X-0.237500X0.250000X-0.237500X-0.250000X0*%
%ADD26RoundRect,0.250000X0.250000X0.475000X-0.250000X0.475000X-0.250000X-0.475000X0.250000X-0.475000X0*%
%ADD27RoundRect,0.200000X0.275000X-0.200000X0.275000X0.200000X-0.275000X0.200000X-0.275000X-0.200000X0*%
%ADD28R,1.700000X1.700000*%
%ADD29O,1.700000X1.700000*%
%ADD30RoundRect,0.250000X1.100000X-0.325000X1.100000X0.325000X-1.100000X0.325000X-1.100000X-0.325000X0*%
%ADD31RoundRect,0.102000X0.750000X0.450000X-0.750000X0.450000X-0.750000X-0.450000X0.750000X-0.450000X0*%
%ADD32RoundRect,0.102000X0.450000X0.750000X-0.450000X0.750000X-0.450000X-0.750000X0.450000X-0.750000X0*%
%ADD33RoundRect,0.102000X0.450000X0.450000X-0.450000X0.450000X-0.450000X-0.450000X0.450000X-0.450000X0*%
%ADD34RoundRect,0.237500X-0.300000X-0.237500X0.300000X-0.237500X0.300000X0.237500X-0.300000X0.237500X0*%
%ADD35RoundRect,0.250000X-1.075000X0.312500X-1.075000X-0.312500X1.075000X-0.312500X1.075000X0.312500X0*%
%ADD36RoundRect,0.225000X-0.250000X0.225000X-0.250000X-0.225000X0.250000X-0.225000X0.250000X0.225000X0*%
%ADD37RoundRect,0.250000X-0.950000X-0.500000X0.950000X-0.500000X0.950000X0.500000X-0.950000X0.500000X0*%
%ADD38RoundRect,0.250000X-0.275000X-0.500000X0.275000X-0.500000X0.275000X0.500000X-0.275000X0.500000X0*%
%ADD39RoundRect,0.250000X-0.362500X-1.425000X0.362500X-1.425000X0.362500X1.425000X-0.362500X1.425000X0*%
%ADD40RoundRect,0.250000X0.362500X1.425000X-0.362500X1.425000X-0.362500X-1.425000X0.362500X-1.425000X0*%
%ADD41RoundRect,0.250000X-0.337500X-0.475000X0.337500X-0.475000X0.337500X0.475000X-0.337500X0.475000X0*%
%ADD42R,1.000000X1.250000*%
%ADD43RoundRect,0.150000X0.150000X-0.512500X0.150000X0.512500X-0.150000X0.512500X-0.150000X-0.512500X0*%
%ADD44RoundRect,0.150000X-0.150000X0.587500X-0.150000X-0.587500X0.150000X-0.587500X0.150000X0.587500X0*%
%ADD45RoundRect,0.250000X0.475000X-0.337500X0.475000X0.337500X-0.475000X0.337500X-0.475000X-0.337500X0*%
%ADD46RoundRect,0.250000X-0.450000X0.325000X-0.450000X-0.325000X0.450000X-0.325000X0.450000X0.325000X0*%
%ADD47RoundRect,0.075000X-0.700000X-0.075000X0.700000X-0.075000X0.700000X0.075000X-0.700000X0.075000X0*%
%ADD48RoundRect,0.075000X-0.075000X-0.700000X0.075000X-0.700000X0.075000X0.700000X-0.075000X0.700000X0*%
%ADD49RoundRect,0.237500X-0.237500X0.300000X-0.237500X-0.300000X0.237500X-0.300000X0.237500X0.300000X0*%
%ADD50R,0.750000X1.000000*%
%ADD51R,0.750000X0.475000*%
%ADD52R,4.560000X2.730000*%
%ADD53R,5.550000X0.910000*%
%ADD54R,4.560000X0.430000*%
%ADD55O,3.800000X5.500000*%
%ADD56O,3.800000X5.300000*%
%ADD57RoundRect,0.375000X-0.375000X0.625000X-0.375000X-0.625000X0.375000X-0.625000X0.375000X0.625000X0*%
%ADD58RoundRect,0.500000X-1.400000X0.500000X-1.400000X-0.500000X1.400000X-0.500000X1.400000X0.500000X0*%
%ADD59RoundRect,0.250000X0.650000X-0.325000X0.650000X0.325000X-0.650000X0.325000X-0.650000X-0.325000X0*%
%ADD60RoundRect,0.250000X0.275000X0.350000X-0.275000X0.350000X-0.275000X-0.350000X0.275000X-0.350000X0*%
%ADD61RoundRect,0.237500X0.237500X-0.300000X0.237500X0.300000X-0.237500X0.300000X-0.237500X-0.300000X0*%
%ADD62RoundRect,0.200000X0.200000X0.275000X-0.200000X0.275000X-0.200000X-0.275000X0.200000X-0.275000X0*%
%ADD63FreePoly0,0.000000*%
%ADD64FreePoly1,0.000000*%
%ADD65R,5.650000X2.350000*%
%ADD66RoundRect,0.250000X-0.262500X-0.450000X0.262500X-0.450000X0.262500X0.450000X-0.262500X0.450000X0*%
%ADD67R,0.900000X0.300000*%
%ADD68R,0.300000X0.900000*%
%ADD69R,4.600000X4.600000*%
%ADD70RoundRect,0.225000X0.225000X0.250000X-0.225000X0.250000X-0.225000X-0.250000X0.225000X-0.250000X0*%
%ADD71R,3.500000X3.500000*%
%ADD72C,4.000000*%
%ADD73R,1.400000X1.200000*%
%ADD74RoundRect,0.250000X-0.475000X0.250000X-0.475000X-0.250000X0.475000X-0.250000X0.475000X0.250000X0*%
%ADD75RoundRect,0.250000X0.325000X0.450000X-0.325000X0.450000X-0.325000X-0.450000X0.325000X-0.450000X0*%
%ADD76RoundRect,0.250000X-0.475000X0.337500X-0.475000X-0.337500X0.475000X-0.337500X0.475000X0.337500X0*%
%ADD77RoundRect,0.250000X0.600000X2.600000X-0.600000X2.600000X-0.600000X-2.600000X0.600000X-2.600000X0*%
G04 APERTURE END LIST*
%TO.C,JP2*%
G36*
X134075000Y-89100000D02*
G01*
X136525000Y-89100000D01*
X136525000Y-90600000D01*
X134075000Y-90600000D01*
X134075000Y-89100000D01*
G37*
%TO.C,JP1*%
G36*
X134075000Y-81150000D02*
G01*
X136525000Y-81150000D01*
X136525000Y-82650000D01*
X134075000Y-82650000D01*
X134075000Y-81150000D01*
G37*
%TD*%
D10*
%TO.C,D1*%
X197325000Y-79600000D03*
D11*
X194950000Y-79600000D03*
%TD*%
D12*
%TO.C,TP102*%
X157800000Y-47600000D03*
%TD*%
D13*
%TO.C,J104*%
X173100000Y-16950000D03*
X165480000Y-16950000D03*
X157860000Y-16950000D03*
%TD*%
D14*
%TO.C,C112*%
X157000000Y-63350000D03*
X157000000Y-61450000D03*
%TD*%
D12*
%TO.C,TP122*%
X124800000Y-68000000D03*
%TD*%
D15*
%TO.C,C6*%
X190537500Y-94562500D03*
X188462500Y-94562500D03*
%TD*%
D14*
%TO.C,C110*%
X178000000Y-64700000D03*
X178000000Y-62800000D03*
%TD*%
D16*
%TO.C,C12*%
X176037500Y-91575000D03*
X174312500Y-91575000D03*
%TD*%
D17*
%TO.C,C133*%
X145505000Y-35616500D03*
X145505000Y-38566500D03*
%TD*%
D18*
%TO.C,C124*%
X173400000Y-60775000D03*
X173400000Y-59225000D03*
%TD*%
D19*
%TO.C,R4*%
X196487500Y-94362500D03*
X198312500Y-94362500D03*
%TD*%
D20*
%TO.C,R142*%
X133137224Y-52783500D03*
X133137224Y-49858500D03*
%TD*%
D21*
%TO.C,R105*%
X197625000Y-59912500D03*
X197625000Y-58087500D03*
%TD*%
D12*
%TO.C,TP118*%
X130400000Y-43000000D03*
%TD*%
D19*
%TO.C,R11*%
X169275000Y-98800000D03*
X171100000Y-98800000D03*
%TD*%
D17*
%TO.C,C121*%
X175600000Y-29825000D03*
X175600000Y-32775000D03*
%TD*%
D22*
%TO.C,R125*%
X136525000Y-60825000D03*
X136525000Y-62475000D03*
%TD*%
D20*
%TO.C,R114*%
X169700000Y-52862500D03*
X169700000Y-49937500D03*
%TD*%
D12*
%TO.C,TP117*%
X172000000Y-43400000D03*
%TD*%
D20*
%TO.C,R110*%
X196262922Y-53059191D03*
X196262922Y-50134191D03*
%TD*%
D12*
%TO.C,TP125*%
X124800000Y-70800000D03*
%TD*%
%TO.C,TP112*%
X134600000Y-47600000D03*
%TD*%
D23*
%TO.C,R3*%
X198312500Y-96162500D03*
X196487500Y-96162500D03*
%TD*%
D17*
%TO.C,C132*%
X125705000Y-29516500D03*
X125705000Y-32466500D03*
%TD*%
D12*
%TO.C,TP2*%
X202000000Y-96400000D03*
%TD*%
D24*
%TO.C,R9*%
X139750000Y-90600000D03*
X141400000Y-90600000D03*
%TD*%
D12*
%TO.C,TP9*%
X149200000Y-52200000D03*
%TD*%
D25*
%TO.C,R18*%
X147600000Y-105162500D03*
X147600000Y-103337500D03*
%TD*%
D26*
%TO.C,C107*%
X174775000Y-69075000D03*
X172875000Y-69075000D03*
%TD*%
D19*
%TO.C,R12*%
X162950000Y-98750000D03*
X164775000Y-98750000D03*
%TD*%
D18*
%TO.C,C125*%
X193800000Y-60575000D03*
X193800000Y-59025000D03*
%TD*%
D27*
%TO.C,R134*%
X129200000Y-67425000D03*
X129200000Y-65775000D03*
%TD*%
D20*
%TO.C,R138*%
X190286096Y-53100000D03*
X190286096Y-50175000D03*
%TD*%
D28*
%TO.C,J2*%
X129990000Y-85600000D03*
D29*
X127450000Y-85600000D03*
X124910000Y-85600000D03*
%TD*%
D27*
%TO.C,R129*%
X195600000Y-60625000D03*
X195600000Y-58975000D03*
%TD*%
%TO.C,R124*%
X195625000Y-64025000D03*
X195625000Y-62375000D03*
%TD*%
D30*
%TO.C,C109*%
X181100000Y-64475000D03*
X181100000Y-61525000D03*
%TD*%
D31*
%TO.C,U2*%
X142750000Y-110610000D03*
X142750000Y-109340000D03*
X142750000Y-108070000D03*
X142750000Y-106800000D03*
X142750000Y-105530000D03*
X142750000Y-104260000D03*
X142750000Y-102990000D03*
X142750000Y-101720000D03*
X142750000Y-100450000D03*
X142750000Y-99180000D03*
X142750000Y-97910000D03*
X142750000Y-96640000D03*
X142750000Y-95370000D03*
X142750000Y-94100000D03*
D32*
X140985000Y-92850000D03*
X139715000Y-92850000D03*
X138445000Y-92850000D03*
X137175000Y-92850000D03*
X135905000Y-92850000D03*
X134635000Y-92850000D03*
X133365000Y-92850000D03*
X132095000Y-92850000D03*
X130825000Y-92850000D03*
X129555000Y-92850000D03*
X128285000Y-92850000D03*
X127015000Y-92850000D03*
D31*
X125250000Y-94100000D03*
X125250000Y-95370000D03*
X125250000Y-96640000D03*
X125250000Y-97910000D03*
X125250000Y-99180000D03*
X125250000Y-100450000D03*
X125250000Y-101720000D03*
X125250000Y-102990000D03*
X125250000Y-104260000D03*
X125250000Y-105530000D03*
X125250000Y-106800000D03*
X125250000Y-108070000D03*
X125250000Y-109340000D03*
X125250000Y-110610000D03*
D33*
X136900000Y-104290000D03*
X135500000Y-104290000D03*
X134100000Y-104290000D03*
X136900000Y-102890000D03*
X135500000Y-102890000D03*
X134100000Y-102890000D03*
X136900000Y-101490000D03*
X135500000Y-101490000D03*
X134100000Y-101490000D03*
%TD*%
D12*
%TO.C,TP114*%
X161200000Y-43200000D03*
%TD*%
%TO.C,TP121*%
X124800000Y-73400000D03*
%TD*%
D19*
%TO.C,R16*%
X194887500Y-108350000D03*
X196712500Y-108350000D03*
%TD*%
D22*
%TO.C,R123*%
X151600000Y-63575000D03*
X151600000Y-65225000D03*
%TD*%
D34*
%TO.C,C13*%
X175587500Y-97000000D03*
X177312500Y-97000000D03*
%TD*%
D12*
%TO.C,TP119*%
X187000000Y-43600000D03*
%TD*%
D35*
%TO.C,R112*%
X126110000Y-24496000D03*
X126110000Y-27421000D03*
%TD*%
D36*
%TO.C,C129*%
X130800000Y-65800000D03*
X130800000Y-67350000D03*
%TD*%
D37*
%TO.C,D105*%
X142124279Y-47591500D03*
D38*
X139749279Y-47591500D03*
%TD*%
D39*
%TO.C,R119*%
X132942500Y-43291500D03*
X138867500Y-43291500D03*
%TD*%
D11*
%TO.C,D102*%
X186911096Y-47937500D03*
D10*
X189286096Y-47937500D03*
%TD*%
D40*
%TO.C,R118*%
X169462500Y-39337500D03*
X163537500Y-39337500D03*
%TD*%
D20*
%TO.C,R141*%
X138874279Y-52754000D03*
X138874279Y-49829000D03*
%TD*%
D11*
%TO.C,D104*%
X171300000Y-47637500D03*
D10*
X173675000Y-47637500D03*
%TD*%
D22*
%TO.C,R127*%
X132800000Y-60850000D03*
X132800000Y-62500000D03*
%TD*%
D20*
%TO.C,R113*%
X203300000Y-27600000D03*
X203300000Y-24675000D03*
%TD*%
D41*
%TO.C,C7*%
X188462500Y-96800000D03*
X190537500Y-96800000D03*
%TD*%
D17*
%TO.C,C116*%
X202500000Y-35362500D03*
X202500000Y-38312500D03*
%TD*%
D42*
%TO.C,SW4*%
X159250000Y-108575000D03*
X159250000Y-100825000D03*
%TD*%
D19*
%TO.C,R5*%
X175537500Y-98750000D03*
X177362500Y-98750000D03*
%TD*%
D43*
%TO.C,U3*%
X196550000Y-90200000D03*
X197500000Y-90200000D03*
X198450000Y-90200000D03*
X198450000Y-87925000D03*
X197500000Y-87925000D03*
X196550000Y-87925000D03*
%TD*%
D25*
%TO.C,R2*%
X202000000Y-91675000D03*
X202000000Y-89850000D03*
%TD*%
D39*
%TO.C,R120*%
X132942500Y-39221000D03*
X138867500Y-39221000D03*
%TD*%
D34*
%TO.C,C22*%
X170662500Y-89875000D03*
X172387500Y-89875000D03*
%TD*%
D42*
%TO.C,SW1*%
X176250000Y-108625000D03*
X176250000Y-100875000D03*
%TD*%
D24*
%TO.C,R131*%
X140775000Y-65650000D03*
X142425000Y-65650000D03*
%TD*%
D12*
%TO.C,TP3*%
X198500000Y-100600000D03*
%TD*%
%TO.C,TP123*%
X124800000Y-65200000D03*
%TD*%
D20*
%TO.C,R137*%
X199662922Y-53059191D03*
X199662922Y-50134191D03*
%TD*%
D17*
%TO.C,C115*%
X142705000Y-35616500D03*
X142705000Y-38566500D03*
%TD*%
D20*
%TO.C,R109*%
X142174279Y-52754000D03*
X142174279Y-49829000D03*
%TD*%
D44*
%TO.C,D111*%
X197450000Y-69762500D03*
X195550000Y-69762500D03*
X196500000Y-71637500D03*
%TD*%
D45*
%TO.C,C9*%
X180850000Y-105137500D03*
X180850000Y-103062500D03*
%TD*%
D46*
%TO.C,D3*%
X190500000Y-69275000D03*
X190500000Y-71325000D03*
%TD*%
D47*
%TO.C,U4*%
X164750000Y-77500000D03*
X164750000Y-78000000D03*
X164750000Y-78500000D03*
X164750000Y-79000000D03*
X164750000Y-79500000D03*
X164750000Y-80000000D03*
X164750000Y-80500000D03*
X164750000Y-81000000D03*
X164750000Y-81500000D03*
X164750000Y-82000000D03*
X164750000Y-82500000D03*
X164750000Y-83000000D03*
X164750000Y-83500000D03*
X164750000Y-84000000D03*
X164750000Y-84500000D03*
X164750000Y-85000000D03*
D48*
X166675000Y-86925000D03*
X167175000Y-86925000D03*
X167675000Y-86925000D03*
X168175000Y-86925000D03*
X168675000Y-86925000D03*
X169175000Y-86925000D03*
X169675000Y-86925000D03*
X170175000Y-86925000D03*
X170675000Y-86925000D03*
X171175000Y-86925000D03*
X171675000Y-86925000D03*
X172175000Y-86925000D03*
X172675000Y-86925000D03*
X173175000Y-86925000D03*
X173675000Y-86925000D03*
X174175000Y-86925000D03*
D47*
X176100000Y-85000000D03*
X176100000Y-84500000D03*
X176100000Y-84000000D03*
X176100000Y-83500000D03*
X176100000Y-83000000D03*
X176100000Y-82500000D03*
X176100000Y-82000000D03*
X176100000Y-81500000D03*
X176100000Y-81000000D03*
X176100000Y-80500000D03*
X176100000Y-80000000D03*
X176100000Y-79500000D03*
X176100000Y-79000000D03*
X176100000Y-78500000D03*
X176100000Y-78000000D03*
X176100000Y-77500000D03*
D48*
X174175000Y-75575000D03*
X173675000Y-75575000D03*
X173175000Y-75575000D03*
X172675000Y-75575000D03*
X172175000Y-75575000D03*
X171675000Y-75575000D03*
X171175000Y-75575000D03*
X170675000Y-75575000D03*
X170175000Y-75575000D03*
X169675000Y-75575000D03*
X169175000Y-75575000D03*
X168675000Y-75575000D03*
X168175000Y-75575000D03*
X167675000Y-75575000D03*
X167175000Y-75575000D03*
X166675000Y-75575000D03*
%TD*%
D12*
%TO.C,TP113*%
X191600000Y-48000000D03*
%TD*%
D17*
%TO.C,C117*%
X156800000Y-35562500D03*
X156800000Y-38512500D03*
%TD*%
D49*
%TO.C,C15*%
X147550000Y-107687500D03*
X147550000Y-109412500D03*
%TD*%
D50*
%TO.C,Q101*%
X198710000Y-25870500D03*
X197440000Y-25870500D03*
X196170000Y-25870500D03*
X194900000Y-25870500D03*
D51*
X198710000Y-31628500D03*
D52*
X196805000Y-30028500D03*
D53*
X196805000Y-28213500D03*
D54*
X196805000Y-27548500D03*
D51*
X194900000Y-31628500D03*
%TD*%
D22*
%TO.C,R104*%
X154800000Y-63575000D03*
X154800000Y-65225000D03*
%TD*%
D16*
%TO.C,C11*%
X176037500Y-89825000D03*
X174312500Y-89825000D03*
%TD*%
D12*
%TO.C,TP4*%
X193900000Y-99100000D03*
%TD*%
D16*
%TO.C,C8*%
X188062500Y-98875000D03*
X186337500Y-98875000D03*
%TD*%
D20*
%TO.C,R139*%
X160808115Y-52662500D03*
X160808115Y-49737500D03*
%TD*%
D17*
%TO.C,C114*%
X200100000Y-35362500D03*
X200100000Y-38312500D03*
%TD*%
D12*
%TO.C,TP6*%
X183550000Y-110400000D03*
%TD*%
D22*
%TO.C,R130*%
X129400000Y-60825000D03*
X129400000Y-62475000D03*
%TD*%
D55*
%TO.C,F1*%
X209400000Y-85750000D03*
D56*
X209400000Y-93750000D03*
%TD*%
D15*
%TO.C,C5*%
X190537500Y-92362500D03*
X188462500Y-92362500D03*
%TD*%
D39*
%TO.C,R121*%
X189937500Y-43637500D03*
X195862500Y-43637500D03*
%TD*%
D57*
%TO.C,U1*%
X191400000Y-102000000D03*
X189100000Y-102000000D03*
D58*
X189100000Y-108300000D03*
D57*
X186800000Y-102000000D03*
%TD*%
D27*
%TO.C,R133*%
X134400000Y-67375000D03*
X134400000Y-65725000D03*
%TD*%
D22*
%TO.C,R103*%
X153200000Y-63575000D03*
X153200000Y-65225000D03*
%TD*%
D20*
%TO.C,R140*%
X173100000Y-52862500D03*
X173100000Y-49937500D03*
%TD*%
D23*
%TO.C,R20*%
X153062500Y-110900000D03*
X151237500Y-110900000D03*
%TD*%
D42*
%TO.C,SW2*%
X170700000Y-108625000D03*
X170700000Y-100875000D03*
%TD*%
D35*
%TO.C,R107*%
X183100000Y-24675000D03*
X183100000Y-27600000D03*
%TD*%
D34*
%TO.C,C16*%
X157187500Y-75850000D03*
X158912500Y-75850000D03*
%TD*%
D25*
%TO.C,R10*%
X187000000Y-75440000D03*
X187000000Y-73615000D03*
%TD*%
D24*
%TO.C,R128*%
X140775000Y-64050000D03*
X142425000Y-64050000D03*
%TD*%
D59*
%TO.C,C118*%
X203700000Y-32612500D03*
X203700000Y-29662500D03*
%TD*%
D12*
%TO.C,TP120*%
X200600000Y-69800000D03*
%TD*%
D49*
%TO.C,C4*%
X194700000Y-89200000D03*
X194700000Y-90925000D03*
%TD*%
D30*
%TO.C,C135*%
X184500000Y-64475000D03*
X184500000Y-61525000D03*
%TD*%
D19*
%TO.C,R13*%
X170487500Y-110900000D03*
X172312500Y-110900000D03*
%TD*%
D12*
%TO.C,TP110*%
X191200000Y-16800000D03*
%TD*%
D50*
%TO.C,Q105*%
X141810000Y-25863000D03*
X140540000Y-25863000D03*
X139270000Y-25863000D03*
X138000000Y-25863000D03*
D51*
X141810000Y-31621000D03*
D52*
X139905000Y-30021000D03*
D53*
X139905000Y-28206000D03*
D54*
X139905000Y-27541000D03*
D51*
X138000000Y-31621000D03*
%TD*%
D60*
%TO.C,FB1*%
X174525000Y-93625000D03*
X172225000Y-93625000D03*
%TD*%
D59*
%TO.C,C131*%
X148369129Y-28973771D03*
X148369129Y-26023771D03*
%TD*%
D61*
%TO.C,C20*%
X145850000Y-101412500D03*
X145850000Y-99687500D03*
%TD*%
D18*
%TO.C,C126*%
X149800000Y-65175000D03*
X149800000Y-63625000D03*
%TD*%
D42*
%TO.C,SW3*%
X165100000Y-108625000D03*
X165100000Y-100875000D03*
%TD*%
D20*
%TO.C,R116*%
X186886096Y-53100000D03*
X186886096Y-50175000D03*
%TD*%
D44*
%TO.C,D109*%
X142283333Y-74987500D03*
X140383333Y-74987500D03*
X141333333Y-76862500D03*
%TD*%
D12*
%TO.C,TP111*%
X177000000Y-46200000D03*
%TD*%
D37*
%TO.C,D103*%
X162583115Y-47537500D03*
D38*
X160208115Y-47537500D03*
%TD*%
D62*
%TO.C,R8*%
X126975000Y-90700000D03*
X125325000Y-90700000D03*
%TD*%
D35*
%TO.C,R111*%
X175700000Y-24675000D03*
X175700000Y-27600000D03*
%TD*%
D63*
%TO.C,JP2*%
X134575000Y-89850000D03*
D64*
X136025000Y-89850000D03*
%TD*%
D20*
%TO.C,R108*%
X164208115Y-52662500D03*
X164208115Y-49737500D03*
%TD*%
D50*
%TO.C,Q102*%
X187290000Y-31437500D03*
X188560000Y-31437500D03*
X189830000Y-31437500D03*
X191100000Y-31437500D03*
D51*
X187290000Y-25679500D03*
D52*
X189195000Y-27279500D03*
D53*
X189195000Y-29094500D03*
D54*
X189195000Y-29759500D03*
D51*
X191100000Y-25679500D03*
%TD*%
D12*
%TO.C,TP103*%
X137400000Y-47600000D03*
%TD*%
D45*
%TO.C,C10*%
X183550000Y-105137500D03*
X183550000Y-103062500D03*
%TD*%
D12*
%TO.C,TP8*%
X125900000Y-80600000D03*
%TD*%
D25*
%TO.C,R15*%
X190560000Y-75440000D03*
X190560000Y-73615000D03*
%TD*%
D23*
%TO.C,R14*%
X165912500Y-110950000D03*
X164087500Y-110950000D03*
%TD*%
D61*
%TO.C,C23*%
X145850000Y-105112500D03*
X145850000Y-103387500D03*
%TD*%
D63*
%TO.C,JP1*%
X134575000Y-81900000D03*
D64*
X136025000Y-81900000D03*
%TD*%
D36*
%TO.C,C123*%
X162000000Y-58425000D03*
X162000000Y-59975000D03*
%TD*%
D12*
%TO.C,TP108*%
X147200000Y-18400000D03*
%TD*%
D44*
%TO.C,D107*%
X130550000Y-74925000D03*
X128650000Y-74925000D03*
X129600000Y-76800000D03*
%TD*%
D12*
%TO.C,TP115*%
X141305000Y-43354000D03*
%TD*%
D27*
%TO.C,R132*%
X136525000Y-67400000D03*
X136525000Y-65750000D03*
%TD*%
D17*
%TO.C,C119*%
X182700000Y-29762500D03*
X182700000Y-32712500D03*
%TD*%
D65*
%TO.C,C104*%
X208700000Y-55500000D03*
X218400000Y-55500000D03*
%TD*%
D12*
%TO.C,TP104*%
X195000000Y-48000000D03*
%TD*%
D28*
%TO.C,J3*%
X140440000Y-85550000D03*
D29*
X137900000Y-85550000D03*
X135360000Y-85550000D03*
%TD*%
D66*
%TO.C,R101*%
X163287500Y-71600000D03*
X165112500Y-71600000D03*
%TD*%
D14*
%TO.C,C134*%
X197625000Y-63950000D03*
X197625000Y-62050000D03*
%TD*%
D45*
%TO.C,C1*%
X199500000Y-84137500D03*
X199500000Y-82062500D03*
%TD*%
D25*
%TO.C,R1*%
X202000000Y-88075000D03*
X202000000Y-86250000D03*
%TD*%
D39*
%TO.C,R122*%
X189937500Y-39637500D03*
X195862500Y-39637500D03*
%TD*%
D67*
%TO.C,IC101*%
X169800000Y-66400000D03*
X169800000Y-65900000D03*
X169800000Y-65400000D03*
X169800000Y-64900000D03*
X169800000Y-64400000D03*
X169800000Y-63900000D03*
X169800000Y-63400000D03*
X169800000Y-62900000D03*
X169800000Y-62400000D03*
X169800000Y-61900000D03*
D68*
X169100000Y-61200000D03*
X168600000Y-61200000D03*
X168100000Y-61200000D03*
X167600000Y-61200000D03*
X167100000Y-61200000D03*
X166600000Y-61200000D03*
X166100000Y-61200000D03*
X165600000Y-61200000D03*
X165100000Y-61200000D03*
X164600000Y-61200000D03*
D67*
X163900000Y-61900000D03*
X163900000Y-62400000D03*
X163900000Y-62900000D03*
X163900000Y-63400000D03*
X163900000Y-63900000D03*
X163900000Y-64400000D03*
X163900000Y-64900000D03*
X163900000Y-65400000D03*
X163900000Y-65900000D03*
X163900000Y-66400000D03*
D68*
X164600000Y-67100000D03*
X165100000Y-67100000D03*
X165600000Y-67100000D03*
X166100000Y-67100000D03*
X166600000Y-67100000D03*
X167100000Y-67100000D03*
X167600000Y-67100000D03*
X168100000Y-67100000D03*
X168600000Y-67100000D03*
X169100000Y-67100000D03*
D69*
X166850000Y-64150000D03*
%TD*%
D23*
%TO.C,R19*%
X159512500Y-110850000D03*
X157687500Y-110850000D03*
%TD*%
D24*
%TO.C,R126*%
X140775000Y-62450000D03*
X142425000Y-62450000D03*
%TD*%
%TO.C,TH101*%
X163375000Y-36000000D03*
X165025000Y-36000000D03*
%TD*%
D70*
%TO.C,C101*%
X165150000Y-69800000D03*
X163600000Y-69800000D03*
%TD*%
D45*
%TO.C,C2*%
X201600000Y-84137500D03*
X201600000Y-82062500D03*
%TD*%
D20*
%TO.C,R115*%
X129837224Y-52783500D03*
X129837224Y-49858500D03*
%TD*%
D44*
%TO.C,D110*%
X148150000Y-74987500D03*
X146250000Y-74987500D03*
X147200000Y-76862500D03*
%TD*%
D12*
%TO.C,TP7*%
X184000000Y-89500000D03*
%TD*%
D46*
%TO.C,D2*%
X186980000Y-69275000D03*
X186980000Y-71325000D03*
%TD*%
D42*
%TO.C,SW5*%
X153650000Y-108625000D03*
X153650000Y-100875000D03*
%TD*%
D71*
%TO.C,J1*%
X209340000Y-106500000D03*
D72*
X216960000Y-106500000D03*
%TD*%
D49*
%TO.C,C14*%
X145800000Y-107687500D03*
X145800000Y-109412500D03*
%TD*%
D16*
%TO.C,C17*%
X158912500Y-81800000D03*
X157187500Y-81800000D03*
%TD*%
D36*
%TO.C,C122*%
X171400000Y-57625000D03*
X171400000Y-59175000D03*
%TD*%
D12*
%TO.C,TP5*%
X185600000Y-94700000D03*
%TD*%
D73*
%TO.C,Y1*%
X159100000Y-77750000D03*
X156900000Y-77750000D03*
X156900000Y-79450000D03*
X159100000Y-79450000D03*
%TD*%
D19*
%TO.C,R7*%
X176787500Y-110850000D03*
X178612500Y-110850000D03*
%TD*%
D25*
%TO.C,R17*%
X147650000Y-101462500D03*
X147650000Y-99637500D03*
%TD*%
D12*
%TO.C,TP1*%
X209100000Y-80300000D03*
%TD*%
D74*
%TO.C,C108*%
X178000000Y-66300000D03*
X178000000Y-68200000D03*
%TD*%
D11*
%TO.C,D106*%
X129862224Y-47621000D03*
D10*
X132237224Y-47621000D03*
%TD*%
D50*
%TO.C,Q106*%
X130400000Y-31379000D03*
X131670000Y-31379000D03*
X132940000Y-31379000D03*
X134210000Y-31379000D03*
D51*
X130400000Y-25621000D03*
D52*
X132305000Y-27221000D03*
D53*
X132305000Y-29036000D03*
D54*
X132305000Y-29701000D03*
D51*
X134210000Y-25621000D03*
%TD*%
D36*
%TO.C,C128*%
X132800000Y-65800000D03*
X132800000Y-67350000D03*
%TD*%
D34*
%TO.C,C21*%
X170712500Y-91575000D03*
X172437500Y-91575000D03*
%TD*%
D65*
%TO.C,C106*%
X208700000Y-69800000D03*
X218400000Y-69800000D03*
%TD*%
D44*
%TO.C,D108*%
X136416667Y-74925000D03*
X134516667Y-74925000D03*
X135466667Y-76800000D03*
%TD*%
D17*
%TO.C,C113*%
X159400000Y-35562500D03*
X159400000Y-38512500D03*
%TD*%
D75*
%TO.C,D4*%
X201152500Y-108300000D03*
X199102500Y-108300000D03*
%TD*%
D12*
%TO.C,TP124*%
X124800000Y-62400000D03*
%TD*%
D50*
%TO.C,Q104*%
X168200000Y-31437500D03*
X169470000Y-31437500D03*
X170740000Y-31437500D03*
X172010000Y-31437500D03*
D51*
X168200000Y-25679500D03*
D52*
X170105000Y-27279500D03*
D53*
X170105000Y-29094500D03*
D54*
X170105000Y-29759500D03*
D51*
X172010000Y-25679500D03*
%TD*%
D18*
%TO.C,C111*%
X158800000Y-63375000D03*
X158800000Y-61825000D03*
%TD*%
D34*
%TO.C,C19*%
X163000000Y-96950000D03*
X164725000Y-96950000D03*
%TD*%
D76*
%TO.C,C3*%
X203700000Y-82062500D03*
X203700000Y-84137500D03*
%TD*%
D37*
%TO.C,D101*%
X199612922Y-47896691D03*
D38*
X197237922Y-47896691D03*
%TD*%
D50*
%TO.C,Q103*%
X164415000Y-25891500D03*
X163145000Y-25891500D03*
X161875000Y-25891500D03*
X160605000Y-25891500D03*
D51*
X164415000Y-31649500D03*
D52*
X162510000Y-30049500D03*
D53*
X162510000Y-28234500D03*
D54*
X162510000Y-27569500D03*
D51*
X160605000Y-31649500D03*
%TD*%
D77*
%TO.C,L1*%
X194350000Y-84862500D03*
X189850000Y-84862500D03*
%TD*%
D12*
%TO.C,TP101*%
X206200000Y-30800000D03*
%TD*%
D28*
%TO.C,J4*%
X158140000Y-89100000D03*
D29*
X155600000Y-89100000D03*
X153060000Y-89100000D03*
X150520000Y-89100000D03*
X147980000Y-89100000D03*
X145440000Y-89100000D03*
%TD*%
D35*
%TO.C,R135*%
X153800000Y-23137500D03*
X153800000Y-26062500D03*
%TD*%
D19*
%TO.C,R6*%
X162962500Y-74625000D03*
X164787500Y-74625000D03*
%TD*%
D70*
%TO.C,C130*%
X142350000Y-67350000D03*
X140800000Y-67350000D03*
%TD*%
D65*
%TO.C,C105*%
X208725000Y-41150000D03*
X218425000Y-41150000D03*
%TD*%
D36*
%TO.C,C127*%
X138000000Y-65800000D03*
X138000000Y-67350000D03*
%TD*%
D40*
%TO.C,R117*%
X169462500Y-43337500D03*
X163537500Y-43337500D03*
%TD*%
D59*
%TO.C,C120*%
X151000000Y-28950000D03*
X151000000Y-26000000D03*
%TD*%
D34*
%TO.C,C18*%
X169337500Y-97000000D03*
X171062500Y-97000000D03*
%TD*%
D20*
%TO.C,R136*%
X147974129Y-23961271D03*
X147974129Y-21036271D03*
%TD*%
D12*
%TO.C,TP116*%
X198200000Y-43600000D03*
%TD*%
M02*
