%TF.GenerationSoftware,KiCad,Pcbnew,9.0.1*%
%TF.CreationDate,2025-04-18T15:35:09+02:00*%
%TF.ProjectId,BLDC_DRIVER,424c4443-5f44-4524-9956-45522e6b6963,rev?*%
%TF.SameCoordinates,Original*%
%TF.FileFunction,Legend,Bot*%
%TF.FilePolarity,Positive*%
%FSLAX46Y46*%
G04 Gerber Fmt 4.6, Leading zero omitted, Abs format (unit mm)*
G04 Created by KiCad (PCBNEW 9.0.1) date 2025-04-18 15:35:09*
%MOMM*%
%LPD*%
G01*
G04 APERTURE LIST*
%ADD10C,0.150000*%
%ADD11C,0.120000*%
G04 APERTURE END LIST*
D10*
X171214285Y-15702819D02*
X170642857Y-15702819D01*
X170928571Y-16702819D02*
X170928571Y-15702819D01*
X170309523Y-16702819D02*
X170309523Y-15702819D01*
X170309523Y-15702819D02*
X169928571Y-15702819D01*
X169928571Y-15702819D02*
X169833333Y-15750438D01*
X169833333Y-15750438D02*
X169785714Y-15798057D01*
X169785714Y-15798057D02*
X169738095Y-15893295D01*
X169738095Y-15893295D02*
X169738095Y-16036152D01*
X169738095Y-16036152D02*
X169785714Y-16131390D01*
X169785714Y-16131390D02*
X169833333Y-16179009D01*
X169833333Y-16179009D02*
X169928571Y-16226628D01*
X169928571Y-16226628D02*
X170309523Y-16226628D01*
X168785714Y-16702819D02*
X169357142Y-16702819D01*
X169071428Y-16702819D02*
X169071428Y-15702819D01*
X169071428Y-15702819D02*
X169166666Y-15845676D01*
X169166666Y-15845676D02*
X169261904Y-15940914D01*
X169261904Y-15940914D02*
X169357142Y-15988533D01*
X168166666Y-15702819D02*
X168071428Y-15702819D01*
X168071428Y-15702819D02*
X167976190Y-15750438D01*
X167976190Y-15750438D02*
X167928571Y-15798057D01*
X167928571Y-15798057D02*
X167880952Y-15893295D01*
X167880952Y-15893295D02*
X167833333Y-16083771D01*
X167833333Y-16083771D02*
X167833333Y-16321866D01*
X167833333Y-16321866D02*
X167880952Y-16512342D01*
X167880952Y-16512342D02*
X167928571Y-16607580D01*
X167928571Y-16607580D02*
X167976190Y-16655200D01*
X167976190Y-16655200D02*
X168071428Y-16702819D01*
X168071428Y-16702819D02*
X168166666Y-16702819D01*
X168166666Y-16702819D02*
X168261904Y-16655200D01*
X168261904Y-16655200D02*
X168309523Y-16607580D01*
X168309523Y-16607580D02*
X168357142Y-16512342D01*
X168357142Y-16512342D02*
X168404761Y-16321866D01*
X168404761Y-16321866D02*
X168404761Y-16083771D01*
X168404761Y-16083771D02*
X168357142Y-15893295D01*
X168357142Y-15893295D02*
X168309523Y-15798057D01*
X168309523Y-15798057D02*
X168261904Y-15750438D01*
X168261904Y-15750438D02*
X168166666Y-15702819D01*
X166976190Y-15702819D02*
X167166666Y-15702819D01*
X167166666Y-15702819D02*
X167261904Y-15750438D01*
X167261904Y-15750438D02*
X167309523Y-15798057D01*
X167309523Y-15798057D02*
X167404761Y-15940914D01*
X167404761Y-15940914D02*
X167452380Y-16131390D01*
X167452380Y-16131390D02*
X167452380Y-16512342D01*
X167452380Y-16512342D02*
X167404761Y-16607580D01*
X167404761Y-16607580D02*
X167357142Y-16655200D01*
X167357142Y-16655200D02*
X167261904Y-16702819D01*
X167261904Y-16702819D02*
X167071428Y-16702819D01*
X167071428Y-16702819D02*
X166976190Y-16655200D01*
X166976190Y-16655200D02*
X166928571Y-16607580D01*
X166928571Y-16607580D02*
X166880952Y-16512342D01*
X166880952Y-16512342D02*
X166880952Y-16274247D01*
X166880952Y-16274247D02*
X166928571Y-16179009D01*
X166928571Y-16179009D02*
X166976190Y-16131390D01*
X166976190Y-16131390D02*
X167071428Y-16083771D01*
X167071428Y-16083771D02*
X167261904Y-16083771D01*
X167261904Y-16083771D02*
X167357142Y-16131390D01*
X167357142Y-16131390D02*
X167404761Y-16179009D01*
X167404761Y-16179009D02*
X167452380Y-16274247D01*
D11*
%TO.C,TP106*%
X169950000Y-14600000D02*
G75*
G02*
X168050000Y-14600000I-950000J0D01*
G01*
X168050000Y-14600000D02*
G75*
G02*
X169950000Y-14600000I950000J0D01*
G01*
%TD*%
M02*
